# xmcd
#
# Track frame offsets:
#	150
#	13132
#	24500
#	41112
#	53305
#	67812
#	84712
#	98715
#	116070
#	131362
#
# Disc length: 1982
#
# Revision: 1
# Processed by: cddbd v1.5.1PL0 Copyright (c) Steve Scherf et al.
# Submitted via: FreeRIP 2.60 
# Normalized: r0:TRMNUM
#
DISCID=7707bc0a
DTITLE=Various Artist - Hot Country Hits Of The 90's
DYEAR=2000
DGENRE=Country
TTITLE0=Mi Vida Loca (My Crazy Life)/Pam Tillis
TTITLE1=Holdin' Heaven/Tracy Byrd
TTITLE2=What Mattered Most/Ty Herndon
TTITLE3=A Little Bit Of You/Lee Roy Parnell
TTITLE4=I wouldn't Have It Any Other Way/Aaron Tippin
TTITLE5=I Want To Be Loved Like That/Shenandoah
TTITLE6=Doctor Time/Rick Trevino
TTITLE7=When It Came To You/John Anderson
TTITLE8=Goodbye Says It All/Blackhawk
TTITLE9=Love On Arrival/Dan Seals
EXTD=
EXTT0=
EXTT1=
EXTT2=
EXTT3=
EXTT4=
EXTT5=
EXTT6=
EXTT7=
EXTT8=
EXTT9=
PLAYORDER=
